<svg xmlns="http://www.w3.org/2000/svg" viewBox="0 0 600 600" role="img" aria-labelledby="title">
  <title id="title">Logo Bandera Azul Ecologica</title>
  <defs>
    <linearGradient id="outerBlue" x1="170" y1="48" x2="430" y2="552" gradientUnits="userSpaceOnUse">
      <stop offset="0" stop-color="#159ed6"/>
      <stop offset="0.52" stop-color="#36b9e8"/>
      <stop offset="1" stop-color="#85d6ee"/>
    </linearGradient>
    <radialGradient id="greenHill" cx="0" cy="0" r="1" gradientUnits="userSpaceOnUse" gradientTransform="translate(312 304) rotate(90) scale(225 230)">
      <stop offset="0" stop-color="#dcef61"/>
      <stop offset="0.46" stop-color="#82c94d"/>
      <stop offset="1" stop-color="#23a84f"/>
    </radialGradient>
    <clipPath id="markClip">
      <circle cx="300" cy="306" r="214"/>
    </clipPath>
  </defs>

  <circle cx="300" cy="300" r="292" fill="url(#outerBlue)"/>
  <path
    d="M54 372C58 168 222 20 430 38C274 48 138 151 86 310C75 344 67 373 62 409C57 398 55 385 54 372Z"
    fill="#eefbff"
    opacity="0.86"
  />

  <g clip-path="url(#markClip)">
    <rect x="70" y="70" width="460" height="460" fill="#fff"/>
    <circle cx="302" cy="278" r="214" fill="url(#greenHill)"/>
    <path
      d="M86 337C126 319 152 270 189 251C225 232 247 309 281 314C321 319 361 224 407 225C455 225 486 300 520 333L520 389L86 389Z"
      fill="#fff"
    />

    <g fill="none" stroke="#23a9df" stroke-width="19" stroke-linecap="round">
      <path d="M72 344C111 316 149 372 188 344C227 316 265 372 304 344C343 316 381 372 420 344C459 316 497 372 536 344"/>
      <path d="M72 381C111 353 149 409 188 381C227 353 265 409 304 381C343 353 381 409 420 381C459 353 497 409 536 381"/>
      <path d="M72 418C111 390 149 446 188 418C227 390 265 446 304 418C343 390 381 446 420 418C459 390 497 446 536 418"/>
      <path d="M72 455C111 427 149 483 188 455C227 427 265 483 304 455C343 427 381 483 420 455C459 427 497 483 536 455"/>
      <path d="M72 492C111 464 149 520 188 492C227 464 265 520 304 492C343 464 381 520 420 492C459 464 497 520 536 492"/>
    </g>
  </g>
</svg>
